# xmcd
#
# Track frame offsets:
#	182
#	9835
#	24430
#	36475
#	47112
#	58265
#	69657
#	79977
#	91287
#	102720
#	115162
#	127075
#
# Disc length: 1839 seconds
#
# Revision: 0
# Processed by: cddbd v1.4PL0 Copyright (c) Steve Scherf et al.
# Submitted via: dBpowerAMP V4.0
#
DISCID=a7072d0c
DTITLE=George Jones - A Good Year For The Roses
DYEAR=1900
DGENRE=Country
TTITLE0=The Race Is On
TTITLE1=A Good Year For The Roses
TTITLE2=White Lightning
TTITLE3=Walk Through This World With Me
TTITLE4=Tender Years
TTITLE5=Old Brush Arbors
TTITLE6=Developing My Pictures
TTITLE7=I'll Share My World With you
TTITLE8=I'm Wasting Good Paper
TTITLE9=If My Heart Had Windows
TTITLE10=Accidentally On Purpose
TTITLE11=Say It's Not You
EXTD=
EXTT0=
EXTT1=
EXTT2=
EXTT3=
EXTT4=
EXTT5=
EXTT6=
EXTT7=
EXTT8=
EXTT9=
EXTT10=
EXTT11=
PLAYORDER=
